# xmcd
#
# Track frame offsets:
#	150
#	10339
#	21010
#	31023
#	42922
#	53847
#	62353
#	72855
#	89168
#	98748
#	114236
#	126576
#	137710
#	148113
#	158273
#	166784
#	178289
#	189209
#
# Disc length: 2670 seconds
#
# Revision: 1
# Processed by: cddbd v1.5.2PL0 Copyright (c) Steve Scherf et al.
# Submitted via: audiograbber 1.83.01
#
DISCID=e90a6c12
DTITLE=Fats Domino - De Beste Sangene [CD 1/2)
DYEAR=1999
DGENRE=Blues
TTITLE0=Be My Guest
TTITLE1=Blueberry Hill
TTITLE2=I'm Walkin'
TTITLE3=Red Sails In The Sunset
TTITLE4=Ain't That A Shame
TTITLE5=Valley Of Tears
TTITLE6=Just A Lonely Man
TTITLE7=If I Get Rich
TTITLE8=That Certain Someone
TTITLE9=Sleeping On The Job
TTITLE10=Lazy Lady
TTITLE11=I've Got A Right To Cry
TTITLE12=Forever, Forever
TTITLE13=Can't Go One Without You
TTITLE14=Old Man Trouble
TTITLE15=The Land of Make Believe
TTITLE16=Bye Baby, Bye Bye
TTITLE17=If You Don't Know What Love Is
EXTD=DISKY Records. Norske Gram AS. SP 857012. Prited in the EU.
EXTT0=
EXTT1=
EXTT2=
EXTT3=
EXTT4=
EXTT5=
EXTT6=
EXTT7=
EXTT8=
EXTT9=
EXTT10=
EXTT11=
EXTT12=
EXTT13=
EXTT14=
EXTT15=
EXTT16=
EXTT17=
PLAYORDER=
